<?xml version="1.0" encoding="UTF-8" standalone="no"?>
<!DOCTYPE svg PUBLIC "-//W3C//DTD SVG 1.1//EN"
 "http://www.w3.org/Graphics/SVG/1.1/DTD/svg11.dtd">
<!-- Generated by graphviz version 2.38.0 (20140413.2041)
 -->
<!-- Title: controllers_diagram Pages: 1 -->
<svg width="1157pt" height="847pt"
 viewBox="0.00 0.00 1156.66 846.68" xmlns="http://www.w3.org/2000/svg" xmlns:xlink="http://www.w3.org/1999/xlink">
<g id="graph0" class="graph" transform="scale(1 1) rotate(0) translate(363.904 482.5)">
<title>controllers_diagram</title>
<polygon fill="white" stroke="none" points="-363.904,364.175 -363.904,-482.5 792.757,-482.5 792.757,364.175 -363.904,364.175"/>
<!-- _diagram_info -->
<g id="node1" class="node"><title>_diagram_info</title>
<text text-anchor="start" x="413.312" y="-464.1" font-family="Times,serif" font-size="13.00">Controllers diagram</text>
<text text-anchor="start" x="413.312" y="-451.1" font-family="Times,serif" font-size="13.00">Date: Sep 18 2014 &#45; 10:41</text>
<text text-anchor="start" x="413.312" y="-438.1" font-family="Times,serif" font-size="13.00">Migration version: 20140906122400</text>
<text text-anchor="start" x="413.312" y="-425.1" font-family="Times,serif" font-size="13.00">Generated by RailRoady 1.1.1</text>
<text text-anchor="start" x="413.312" y="-412.1" font-family="Times,serif" font-size="13.00">http://railroady.prestonlee.com</text>
</g>
<!-- AddressesController -->
<g id="node2" class="node"><title>AddressesController</title>
<path fill="none" stroke="black" d="M-347.904,112.83C-347.904,112.83 -169.269,112.83 -169.269,112.83 -163.269,112.83 -157.269,106.83 -157.269,100.83 -157.269,100.83 -157.269,-63.1697 -157.269,-63.1697 -157.269,-69.1697 -163.269,-75.1697 -169.269,-75.1697 -169.269,-75.1697 -347.904,-75.1697 -347.904,-75.1697 -353.904,-75.1697 -359.904,-69.1697 -359.904,-63.1697 -359.904,-63.1697 -359.904,100.83 -359.904,100.83 -359.904,106.83 -353.904,112.83 -347.904,112.83"/>
<text text-anchor="middle" x="-258.586" y="-59.9697" font-family="Times,serif" font-size="14.00">AddressesController</text>
<polyline fill="none" stroke="black" points="-359.904,-53.1697 -157.269,-53.1697 "/>
<text text-anchor="start" x="-351.904" y="-37.9697" font-family="Times,serif" font-size="14.00">_one_time_conditions_valid_90?</text>
<text text-anchor="start" x="-351.904" y="-23.9697" font-family="Times,serif" font-size="14.00">create</text>
<text text-anchor="start" x="-351.904" y="-9.96968" font-family="Times,serif" font-size="14.00">destroy</text>
<text text-anchor="start" x="-351.904" y="4.03032" font-family="Times,serif" font-size="14.00">edit</text>
<text text-anchor="start" x="-351.904" y="18.0303" font-family="Times,serif" font-size="14.00">index</text>
<text text-anchor="start" x="-351.904" y="32.0303" font-family="Times,serif" font-size="14.00">new</text>
<text text-anchor="start" x="-351.904" y="46.0303" font-family="Times,serif" font-size="14.00">show</text>
<text text-anchor="start" x="-351.904" y="60.0303" font-family="Times,serif" font-size="14.00">update</text>
<polyline fill="none" stroke="black" points="-359.904,66.8303 -157.269,66.8303 "/>
<polyline fill="none" stroke="black" points="-359.904,90.8303 -157.269,90.8303 "/>
<text text-anchor="start" x="-351.904" y="106.03" font-family="Times,serif" font-size="14.00">_layout</text>
</g>
<!-- ApplicationController -->
<g id="node3" class="node"><title>ApplicationController</title>
<path fill="none" stroke="black" d="M-94.791,55.6291C-94.791,55.6291 83.8437,55.6291 83.8437,55.6291 89.8437,55.6291 95.8437,49.6291 95.8437,43.6291 95.8437,43.6291 95.8437,-22.3709 95.8437,-22.3709 95.8437,-28.3709 89.8437,-34.3709 83.8437,-34.3709 83.8437,-34.3709 -94.791,-34.3709 -94.791,-34.3709 -100.791,-34.3709 -106.791,-28.3709 -106.791,-22.3709 -106.791,-22.3709 -106.791,43.6291 -106.791,43.6291 -106.791,49.6291 -100.791,55.6291 -94.791,55.6291"/>
<text text-anchor="middle" x="-5.47364" y="-19.1709" font-family="Times,serif" font-size="14.00">ApplicationController</text>
<polyline fill="none" stroke="black" points="-106.791,-12.3709 95.8437,-12.3709 "/>
<text text-anchor="start" x="-98.791" y="2.82905" font-family="Times,serif" font-size="14.00">_one_time_conditions_valid_74?</text>
<polyline fill="none" stroke="black" points="-106.791,9.62905 95.8437,9.62905 "/>
<polyline fill="none" stroke="black" points="-106.791,33.6291 95.8437,33.6291 "/>
<text text-anchor="start" x="-98.791" y="48.8291" font-family="Times,serif" font-size="14.00">_layout</text>
</g>
<!-- ApplicationController&#45;&gt;AddressesController -->
<g id="edge1" class="edge"><title>ApplicationController&#45;&gt;AddressesController</title>
<path fill="none" stroke="black" d="M-106.966,13.9176C-123.47,14.4523 -140.567,15.0063 -157.071,15.5411"/>
</g>
<!-- CompaniesController -->
<g id="node4" class="node"><title>CompaniesController</title>
<path fill="none" stroke="black" d="M86.0284,353.974C86.0284,353.974 271.663,353.974 271.663,353.974 277.663,353.974 283.663,347.974 283.663,341.974 283.663,341.974 283.663,177.974 283.663,177.974 283.663,171.974 277.663,165.974 271.663,165.974 271.663,165.974 86.0284,165.974 86.0284,165.974 80.0284,165.974 74.0284,171.974 74.0284,177.974 74.0284,177.974 74.0284,341.974 74.0284,341.974 74.0284,347.974 80.0284,353.974 86.0284,353.974"/>
<text text-anchor="middle" x="178.846" y="181.174" font-family="Times,serif" font-size="14.00">CompaniesController</text>
<polyline fill="none" stroke="black" points="74.0284,187.974 283.663,187.974 "/>
<text text-anchor="start" x="82.0284" y="203.174" font-family="Times,serif" font-size="14.00">_one_time_conditions_valid_126?</text>
<text text-anchor="start" x="82.0284" y="217.174" font-family="Times,serif" font-size="14.00">create</text>
<text text-anchor="start" x="82.0284" y="231.174" font-family="Times,serif" font-size="14.00">destroy</text>
<text text-anchor="start" x="82.0284" y="245.174" font-family="Times,serif" font-size="14.00">edit</text>
<text text-anchor="start" x="82.0284" y="259.174" font-family="Times,serif" font-size="14.00">index</text>
<text text-anchor="start" x="82.0284" y="273.174" font-family="Times,serif" font-size="14.00">new</text>
<text text-anchor="start" x="82.0284" y="287.174" font-family="Times,serif" font-size="14.00">show</text>
<text text-anchor="start" x="82.0284" y="301.174" font-family="Times,serif" font-size="14.00">update</text>
<polyline fill="none" stroke="black" points="74.0284,307.974 283.663,307.974 "/>
<polyline fill="none" stroke="black" points="74.0284,331.974 283.663,331.974 "/>
<text text-anchor="start" x="82.0284" y="347.174" font-family="Times,serif" font-size="14.00">_layout</text>
</g>
<!-- ApplicationController&#45;&gt;CompaniesController -->
<g id="edge2" class="edge"><title>ApplicationController&#45;&gt;CompaniesController</title>
<path fill="none" stroke="black" d="M27.9052,55.7835C50.5728,86.4478 81.3829,128.127 109.257,165.836"/>
</g>
<!-- DashboardController -->
<g id="node5" class="node"><title>DashboardController</title>
<path fill="none" stroke="black" d="M99.9083,-114.918C99.9083,-114.918 244.309,-114.918 244.309,-114.918 250.309,-114.918 256.309,-120.918 256.309,-126.918 256.309,-126.918 256.309,-360.918 256.309,-360.918 256.309,-366.918 250.309,-372.918 244.309,-372.918 244.309,-372.918 99.9083,-372.918 99.9083,-372.918 93.9083,-372.918 87.9083,-366.918 87.9083,-360.918 87.9083,-360.918 87.9083,-126.918 87.9083,-126.918 87.9083,-120.918 93.9083,-114.918 99.9083,-114.918"/>
<text text-anchor="middle" x="172.108" y="-357.718" font-family="Times,serif" font-size="14.00">DashboardController</text>
<polyline fill="none" stroke="black" points="87.9083,-350.918 256.309,-350.918 "/>
<text text-anchor="start" x="95.9083" y="-335.718" font-family="Times,serif" font-size="14.00">accept_user</text>
<text text-anchor="start" x="95.9083" y="-321.718" font-family="Times,serif" font-size="14.00">contact_user</text>
<text text-anchor="start" x="95.9083" y="-307.718" font-family="Times,serif" font-size="14.00">get_current_company_jobs</text>
<text text-anchor="start" x="95.9083" y="-293.718" font-family="Times,serif" font-size="14.00">get_current_contractor</text>
<text text-anchor="start" x="95.9083" y="-279.718" font-family="Times,serif" font-size="14.00">get_current_employee</text>
<text text-anchor="start" x="95.9083" y="-265.718" font-family="Times,serif" font-size="14.00">get_current_user_type</text>
<text text-anchor="start" x="95.9083" y="-251.718" font-family="Times,serif" font-size="14.00">get_potential_contractors</text>
<text text-anchor="start" x="95.9083" y="-237.718" font-family="Times,serif" font-size="14.00">index</text>
<text text-anchor="start" x="95.9083" y="-223.718" font-family="Times,serif" font-size="14.00">offer_user</text>
<text text-anchor="start" x="95.9083" y="-209.718" font-family="Times,serif" font-size="14.00">reject_user</text>
<text text-anchor="start" x="95.9083" y="-195.718" font-family="Times,serif" font-size="14.00">show_job_interest</text>
<text text-anchor="start" x="95.9083" y="-181.718" font-family="Times,serif" font-size="14.00">update_available_now</text>
<text text-anchor="start" x="95.9083" y="-167.718" font-family="Times,serif" font-size="14.00">update_distance_travel</text>
<polyline fill="none" stroke="black" points="87.9083,-160.918 256.309,-160.918 "/>
<polyline fill="none" stroke="black" points="87.9083,-136.918 256.309,-136.918 "/>
<text text-anchor="start" x="95.9083" y="-121.718" font-family="Times,serif" font-size="14.00">_layout</text>
</g>
<!-- ApplicationController&#45;&gt;DashboardController -->
<g id="edge3" class="edge"><title>ApplicationController&#45;&gt;DashboardController</title>
<path fill="none" stroke="black" d="M26.0699,-34.5855C43.4121,-59.444 65.8336,-91.583 87.8791,-123.183"/>
</g>
<!-- JobsController -->
<g id="node6" class="node"><title>JobsController</title>
<path fill="none" stroke="black" d="M154.901,97.4063C154.901,97.4063 340.536,97.4063 340.536,97.4063 346.536,97.4063 352.536,91.4063 352.536,85.4063 352.536,85.4063 352.536,-78.5937 352.536,-78.5937 352.536,-84.5937 346.536,-90.5937 340.536,-90.5937 340.536,-90.5937 154.901,-90.5937 154.901,-90.5937 148.901,-90.5937 142.901,-84.5937 142.901,-78.5937 142.901,-78.5937 142.901,85.4063 142.901,85.4063 142.901,91.4063 148.901,97.4063 154.901,97.4063"/>
<text text-anchor="middle" x="247.719" y="-75.3937" font-family="Times,serif" font-size="14.00">JobsController</text>
<polyline fill="none" stroke="black" points="142.901,-68.5937 352.536,-68.5937 "/>
<text text-anchor="start" x="150.901" y="-53.3937" font-family="Times,serif" font-size="14.00">_one_time_conditions_valid_166?</text>
<text text-anchor="start" x="150.901" y="-39.3937" font-family="Times,serif" font-size="14.00">create</text>
<text text-anchor="start" x="150.901" y="-25.3937" font-family="Times,serif" font-size="14.00">destroy</text>
<text text-anchor="start" x="150.901" y="-11.3937" font-family="Times,serif" font-size="14.00">edit</text>
<text text-anchor="start" x="150.901" y="2.60634" font-family="Times,serif" font-size="14.00">index</text>
<text text-anchor="start" x="150.901" y="16.6063" font-family="Times,serif" font-size="14.00">new</text>
<text text-anchor="start" x="150.901" y="30.6063" font-family="Times,serif" font-size="14.00">show</text>
<text text-anchor="start" x="150.901" y="44.6063" font-family="Times,serif" font-size="14.00">update</text>
<polyline fill="none" stroke="black" points="142.901,51.4063 352.536,51.4063 "/>
<polyline fill="none" stroke="black" points="142.901,75.4063 352.536,75.4063 "/>
<text text-anchor="start" x="150.901" y="90.6063" font-family="Times,serif" font-size="14.00">_layout</text>
</g>
<!-- ApplicationController&#45;&gt;JobsController -->
<g id="edge4" class="edge"><title>ApplicationController&#45;&gt;JobsController</title>
<path fill="none" stroke="black" d="M96.0504,7.73292C111.459,7.29336 127.384,6.83907 142.862,6.39754"/>
</g>
<!-- JobsearchesController -->
<g id="node7" class="node"><title>JobsearchesController</title>
<path fill="none" stroke="black" d="M-282.448,-144.626C-282.448,-144.626 -96.8129,-144.626 -96.8129,-144.626 -90.8129,-144.626 -84.8129,-150.626 -84.8129,-156.626 -84.8129,-156.626 -84.8129,-320.626 -84.8129,-320.626 -84.8129,-326.626 -90.8129,-332.626 -96.8129,-332.626 -96.8129,-332.626 -282.448,-332.626 -282.448,-332.626 -288.448,-332.626 -294.448,-326.626 -294.448,-320.626 -294.448,-320.626 -294.448,-156.626 -294.448,-156.626 -294.448,-150.626 -288.448,-144.626 -282.448,-144.626"/>
<text text-anchor="middle" x="-189.63" y="-317.426" font-family="Times,serif" font-size="14.00">JobsearchesController</text>
<polyline fill="none" stroke="black" points="-294.448,-310.626 -84.8129,-310.626 "/>
<text text-anchor="start" x="-286.448" y="-295.426" font-family="Times,serif" font-size="14.00">_one_time_conditions_valid_172?</text>
<text text-anchor="start" x="-286.448" y="-281.426" font-family="Times,serif" font-size="14.00">create</text>
<text text-anchor="start" x="-286.448" y="-267.426" font-family="Times,serif" font-size="14.00">destroy</text>
<text text-anchor="start" x="-286.448" y="-253.426" font-family="Times,serif" font-size="14.00">edit</text>
<text text-anchor="start" x="-286.448" y="-239.426" font-family="Times,serif" font-size="14.00">index</text>
<text text-anchor="start" x="-286.448" y="-225.426" font-family="Times,serif" font-size="14.00">new</text>
<text text-anchor="start" x="-286.448" y="-211.426" font-family="Times,serif" font-size="14.00">show</text>
<text text-anchor="start" x="-286.448" y="-197.426" font-family="Times,serif" font-size="14.00">update</text>
<polyline fill="none" stroke="black" points="-294.448,-190.626 -84.8129,-190.626 "/>
<polyline fill="none" stroke="black" points="-294.448,-166.626 -84.8129,-166.626 "/>
<text text-anchor="start" x="-286.448" y="-151.426" font-family="Times,serif" font-size="14.00">_layout</text>
</g>
<!-- ApplicationController&#45;&gt;JobsearchesController -->
<g id="edge5" class="edge"><title>ApplicationController&#45;&gt;JobsearchesController</title>
<path fill="none" stroke="black" d="M-38.823,-34.5092C-61.4706,-65.1626 -92.2534,-106.827 -120.103,-144.522"/>
</g>
<!-- QualificationsController -->
<g id="node8" class="node"><title>QualificationsController</title>
<path fill="none" stroke="black" d="M-275.35,359.327C-275.35,359.327 -89.7156,359.327 -89.7156,359.327 -83.7156,359.327 -77.7156,353.327 -77.7156,347.327 -77.7156,347.327 -77.7156,183.327 -77.7156,183.327 -77.7156,177.327 -83.7156,171.327 -89.7156,171.327 -89.7156,171.327 -275.35,171.327 -275.35,171.327 -281.35,171.327 -287.35,177.327 -287.35,183.327 -287.35,183.327 -287.35,347.327 -287.35,347.327 -287.35,353.327 -281.35,359.327 -275.35,359.327"/>
<text text-anchor="middle" x="-182.533" y="186.527" font-family="Times,serif" font-size="14.00">QualificationsController</text>
<polyline fill="none" stroke="black" points="-287.35,193.327 -77.7156,193.327 "/>
<text text-anchor="start" x="-279.35" y="208.527" font-family="Times,serif" font-size="14.00">_one_time_conditions_valid_194?</text>
<text text-anchor="start" x="-279.35" y="222.527" font-family="Times,serif" font-size="14.00">create</text>
<text text-anchor="start" x="-279.35" y="236.527" font-family="Times,serif" font-size="14.00">destroy</text>
<text text-anchor="start" x="-279.35" y="250.527" font-family="Times,serif" font-size="14.00">edit</text>
<text text-anchor="start" x="-279.35" y="264.527" font-family="Times,serif" font-size="14.00">index</text>
<text text-anchor="start" x="-279.35" y="278.527" font-family="Times,serif" font-size="14.00">new</text>
<text text-anchor="start" x="-279.35" y="292.527" font-family="Times,serif" font-size="14.00">show</text>
<text text-anchor="start" x="-279.35" y="306.527" font-family="Times,serif" font-size="14.00">update</text>
<polyline fill="none" stroke="black" points="-287.35,313.327 -77.7156,313.327 "/>
<polyline fill="none" stroke="black" points="-287.35,337.327 -77.7156,337.327 "/>
<text text-anchor="start" x="-279.35" y="352.527" font-family="Times,serif" font-size="14.00">_layout</text>
</g>
<!-- ApplicationController&#45;&gt;QualificationsController -->
<g id="edge6" class="edge"><title>ApplicationController&#45;&gt;QualificationsController</title>
<path fill="none" stroke="black" d="M-36.9243,55.8704C-59.1345,87.8196 -89.7003,131.788 -117.095,171.195"/>
</g>
<!-- RegistrationsController -->
<g id="node9" class="node"><title>RegistrationsController</title>
<path fill="none" stroke="black" d="M327.09,-180.322C327.09,-180.322 512.724,-180.322 512.724,-180.322 518.724,-180.322 524.724,-186.322 524.724,-192.322 524.724,-192.322 524.724,-314.322 524.724,-314.322 524.724,-320.322 518.724,-326.322 512.724,-326.322 512.724,-326.322 327.09,-326.322 327.09,-326.322 321.09,-326.322 315.09,-320.322 315.09,-314.322 315.09,-314.322 315.09,-192.322 315.09,-192.322 315.09,-186.322 321.09,-180.322 327.09,-180.322"/>
<text text-anchor="middle" x="419.907" y="-311.122" font-family="Times,serif" font-size="14.00">RegistrationsController</text>
<polyline fill="none" stroke="black" points="315.09,-304.322 524.724,-304.322 "/>
<text text-anchor="start" x="323.09" y="-289.122" font-family="Times,serif" font-size="14.00">_one_time_conditions_valid_206?</text>
<text text-anchor="start" x="323.09" y="-275.122" font-family="Times,serif" font-size="14.00">create</text>
<text text-anchor="start" x="323.09" y="-261.122" font-family="Times,serif" font-size="14.00">determine_resource_type</text>
<text text-anchor="start" x="323.09" y="-247.122" font-family="Times,serif" font-size="14.00">new</text>
<text text-anchor="start" x="323.09" y="-233.122" font-family="Times,serif" font-size="14.00">update</text>
<polyline fill="none" stroke="black" points="315.09,-226.322 524.724,-226.322 "/>
<polyline fill="none" stroke="black" points="315.09,-202.322 524.724,-202.322 "/>
<text text-anchor="start" x="323.09" y="-187.122" font-family="Times,serif" font-size="14.00">_layout</text>
</g>
<!-- SessionsController -->
<g id="node10" class="node"><title>SessionsController</title>
<path fill="none" stroke="black" d="M372.012,359.675C372.012,359.675 469.791,359.675 469.791,359.675 475.791,359.675 481.791,353.675 481.791,347.675 481.791,347.675 481.791,267.675 481.791,267.675 481.791,261.675 475.791,255.675 469.791,255.675 469.791,255.675 372.012,255.675 372.012,255.675 366.012,255.675 360.012,261.675 360.012,267.675 360.012,267.675 360.012,347.675 360.012,347.675 360.012,353.675 366.012,359.675 372.012,359.675"/>
<text text-anchor="middle" x="420.902" y="270.875" font-family="Times,serif" font-size="14.00">SessionsController</text>
<polyline fill="none" stroke="black" points="360.012,277.675 481.791,277.675 "/>
<text text-anchor="start" x="368.012" y="292.875" font-family="Times,serif" font-size="14.00">create</text>
<text text-anchor="start" x="368.012" y="306.875" font-family="Times,serif" font-size="14.00">new</text>
<polyline fill="none" stroke="black" points="360.012,313.675 481.791,313.675 "/>
<polyline fill="none" stroke="black" points="360.012,337.675 481.791,337.675 "/>
<text text-anchor="start" x="368.012" y="352.875" font-family="Times,serif" font-size="14.00">_layout</text>
</g>
<!-- Devise::RegistrationsController -->
<g id="node11" class="node"><title>Devise::RegistrationsController</title>
<ellipse fill="none" stroke="black" cx="666.16" cy="-253.317" rx="122.695" ry="18"/>
<text text-anchor="middle" x="666.16" y="-249.117" font-family="Times,serif" font-size="14.00">Devise::RegistrationsController</text>
</g>
<!-- Devise::RegistrationsController&#45;&gt;RegistrationsController -->
<g id="edge7" class="edge"><title>Devise::RegistrationsController&#45;&gt;RegistrationsController</title>
<path fill="none" stroke="black" d="M543.394,-253.32C537.25,-253.32 531.104,-253.32 525.019,-253.32"/>
</g>
<!-- Devise::SessionsController -->
<g id="node12" class="node"><title>Devise::SessionsController</title>
<ellipse fill="none" stroke="black" cx="600.697" cy="307.686" rx="106.292" ry="18"/>
<text text-anchor="middle" x="600.697" y="311.886" font-family="Times,serif" font-size="14.00">Devise::SessionsController</text>
</g>
<!-- Devise::SessionsController&#45;&gt;SessionsController -->
<g id="edge8" class="edge"><title>Devise::SessionsController&#45;&gt;SessionsController</title>
<path fill="none" stroke="black" d="M494.291,307.679C490.196,307.679 486.149,307.679 482.185,307.679"/>
</g>
</g>
</svg>
