<?xml version="1.0" encoding="UTF-8" standalone="no"?>
<!DOCTYPE svg PUBLIC "-//W3C//DTD SVG 1.1//EN"
 "http://www.w3.org/Graphics/SVG/1.1/DTD/svg11.dtd">
<!-- Generated by graphviz version 2.38.0 (20140413.2041)
 -->
<!-- Title: models_diagram Pages: 1 -->
<svg width="821pt" height="313pt"
 viewBox="0.00 0.00 820.97 313.00" xmlns="http://www.w3.org/2000/svg" xmlns:xlink="http://www.w3.org/1999/xlink">
<g id="graph0" class="graph" transform="scale(1 1) rotate(0) translate(4 309)">
<title>models_diagram</title>
<polygon fill="white" stroke="none" points="-4,4 -4,-309 816.968,-309 816.968,4 -4,4"/>
<!-- _diagram_info -->
<g id="node1" class="node"><title>_diagram_info</title>
<text text-anchor="start" x="8" y="-290.6" font-family="Times,serif" font-size="13.00">Models diagram</text>
<text text-anchor="start" x="8" y="-277.6" font-family="Times,serif" font-size="13.00">Date: Sep 18 2014 &#45; 10:41</text>
<text text-anchor="start" x="8" y="-264.6" font-family="Times,serif" font-size="13.00">Migration version: 20140906122400</text>
<text text-anchor="start" x="8" y="-251.6" font-family="Times,serif" font-size="13.00">Generated by RailRoady 1.1.1</text>
<text text-anchor="start" x="8" y="-238.6" font-family="Times,serif" font-size="13.00">http://railroady.prestonlee.com</text>
</g>
<!-- Ability -->
<g id="node2" class="node"><title>Ability</title>
<polygon fill="none" stroke="black" points="286.358,-195 231.018,-195 231.018,-159 286.358,-159 286.358,-195"/>
<text text-anchor="middle" x="258.688" y="-172.8" font-family="Times,serif" font-size="14.00">Ability</text>
</g>
<!-- Address -->
<g id="node3" class="node"><title>Address</title>
<ellipse fill="none" stroke="black" cx="588.688" cy="-18" rx="39.18" ry="18"/>
<text text-anchor="middle" x="588.688" y="-13.8" font-family="Times,serif" font-size="14.00">Address</text>
</g>
<!-- Company -->
<g id="node4" class="node"><title>Company</title>
<ellipse fill="none" stroke="black" cx="628.688" cy="-177" rx="44.4923" ry="18"/>
<text text-anchor="middle" x="628.688" y="-172.8" font-family="Times,serif" font-size="14.00">Company</text>
</g>
<!-- Company&#45;&gt;Address -->
<g id="edge3" class="edge"><title>Company&#45;&gt;Address</title>
<path fill="none" stroke="#fc4a15" d="M622.281,-150.852C614.819,-121.564 602.565,-73.4674 595.1,-44.1699"/>
<ellipse fill="none" stroke="#fc4a15" cx="623.343" cy="-155.023" rx="4.00001" ry="4.00001"/>
<ellipse fill="#fc4a15" stroke="#fc4a15" cx="594.027" cy="-39.9557" rx="4.00001" ry="4.00001"/>
<text text-anchor="middle" x="635.681" y="-99.8" font-family="Times,serif" font-size="14.00">address</text>
</g>
<!-- Employee -->
<g id="node6" class="node"><title>Employee</title>
<ellipse fill="none" stroke="black" cx="546.688" cy="-104" rx="45.92" ry="18"/>
<text text-anchor="middle" x="546.688" y="-99.8" font-family="Times,serif" font-size="14.00">Employee</text>
</g>
<!-- Company&#45;&gt;Employee -->
<g id="edge5" class="edge"><title>Company&#45;&gt;Employee</title>
<path fill="none" stroke="#8c5a1a" d="M604.146,-154.751C594.183,-146.124 582.666,-136.152 572.57,-127.41"/>
<ellipse fill="none" stroke="#8c5a1a" cx="607.465" cy="-157.624" rx="4.00002" ry="4.00002"/>
<polygon fill="#8c5a1a" stroke="#8c5a1a" points="572.395,-127.259 567.781,-117.311 568.615,-123.986 564.835,-120.713 564.835,-120.713 564.835,-120.713 568.615,-123.986 561.89,-124.115 572.395,-127.259 572.395,-127.259"/>
</g>
<!-- Job -->
<g id="node7" class="node"><title>Job</title>
<ellipse fill="none" stroke="black" cx="715.688" cy="-104" rx="27" ry="18"/>
<text text-anchor="middle" x="715.688" y="-99.8" font-family="Times,serif" font-size="14.00">Job</text>
</g>
<!-- Company&#45;&gt;Job -->
<g id="edge4" class="edge"><title>Company&#45;&gt;Job</title>
<path fill="none" stroke="#471008" d="M653.993,-155.349C665.711,-145.786 679.578,-134.469 691.195,-124.988"/>
<ellipse fill="none" stroke="#471008" cx="650.664" cy="-158.065" rx="4.00002" ry="4.00002"/>
<polygon fill="#471008" stroke="#471008" points="691.445,-124.784 702.038,-121.948 695.319,-121.623 699.193,-118.462 699.193,-118.462 699.193,-118.462 695.319,-121.623 696.347,-114.975 691.445,-124.784 691.445,-124.784"/>
</g>
<!-- Contractor -->
<g id="node5" class="node"><title>Contractor</title>
<ellipse fill="none" stroke="black" cx="434.688" cy="-104" rx="47.8496" ry="18"/>
<text text-anchor="middle" x="434.688" y="-99.8" font-family="Times,serif" font-size="14.00">Contractor</text>
</g>
<!-- Contractor&#45;&gt;Address -->
<g id="edge7" class="edge"><title>Contractor&#45;&gt;Address</title>
<path fill="none" stroke="#932c12" d="M467.912,-84.8777C494.465,-70.3941 531.419,-50.2375 557.438,-36.0453"/>
<ellipse fill="none" stroke="#932c12" cx="464.323" cy="-86.8351" rx="4.00002" ry="4.00002"/>
<ellipse fill="#932c12" stroke="#932c12" cx="560.957" cy="-34.1256" rx="4.00002" ry="4.00002"/>
<text text-anchor="middle" x="541.681" y="-56.8" font-family="Times,serif" font-size="14.00">address</text>
</g>
<!-- Jobsearch -->
<g id="node8" class="node"><title>Jobsearch</title>
<ellipse fill="none" stroke="black" cx="339.688" cy="-18" rx="44.9509" ry="18"/>
<text text-anchor="middle" x="339.688" y="-13.8" font-family="Times,serif" font-size="14.00">Jobsearch</text>
</g>
<!-- Contractor&#45;&gt;Jobsearch -->
<g id="edge8" class="edge"><title>Contractor&#45;&gt;Jobsearch</title>
<path fill="none" stroke="#b7e13c" d="M410.528,-81.6379C396.709,-69.4191 379.383,-54.0991 365.325,-41.6686"/>
<ellipse fill="none" stroke="#b7e13c" cx="413.822" cy="-84.5506" rx="4.00002" ry="4.00002"/>
<polygon fill="#b7e13c" stroke="#b7e13c" points="364.968,-41.353 360.457,-31.3577 361.222,-38.0409 357.476,-34.7289 357.476,-34.7289 357.476,-34.7289 361.222,-38.0409 354.496,-38.1001 364.968,-41.353 364.968,-41.353"/>
</g>
<!-- Qualification -->
<g id="node9" class="node"><title>Qualification</title>
<ellipse fill="none" stroke="black" cx="756.688" cy="-18" rx="56.0614" ry="18"/>
<text text-anchor="middle" x="756.688" y="-13.8" font-family="Times,serif" font-size="14.00">Qualification</text>
</g>
<!-- Contractor&#45;&gt;Qualification -->
<g id="edge9" class="edge"><title>Contractor&#45;&gt;Qualification</title>
<path fill="none" stroke="#34ed40" d="M480.131,-89.2059C484.033,-88.0949 487.925,-87.0119 491.688,-86 524.792,-77.098 533.423,-76.2805 566.688,-68 613.419,-56.3673 666.478,-42.6399 704.625,-32.6786"/>
<polygon fill="#34ed40" stroke="#34ed40" points="480.088,-89.2185 469.23,-87.6789 475.285,-90.6098 470.483,-92.0012 470.483,-92.0012 470.483,-92.0012 475.285,-90.6098 471.735,-96.3235 480.088,-89.2185 480.088,-89.2185"/>
<polygon fill="#34ed40" stroke="#34ed40" points="704.805,-32.6318 715.618,-34.4563 709.642,-31.3672 714.48,-30.1026 714.48,-30.1026 714.48,-30.1026 709.642,-31.3672 713.342,-25.7489 704.805,-32.6318 704.805,-32.6318"/>
</g>
<!-- Job&#45;&gt;Address -->
<g id="edge12" class="edge"><title>Job&#45;&gt;Address</title>
<path fill="none" stroke="#9f2ee4" d="M693.924,-83.4207C682.882,-73.9639 669.014,-62.7903 655.688,-54 645.274,-47.1307 633.355,-40.5369 622.486,-34.9611"/>
<ellipse fill="none" stroke="#9f2ee4" cx="697.053" cy="-86.137" rx="4.00002" ry="4.00002"/>
<ellipse fill="#9f2ee4" stroke="#9f2ee4" cx="618.732" cy="-33.0715" rx="4.00002" ry="4.00002"/>
<text text-anchor="middle" x="694.681" y="-56.8" font-family="Times,serif" font-size="14.00">address</text>
</g>
<!-- Job&#45;&gt;Jobsearch -->
<g id="edge13" class="edge"><title>Job&#45;&gt;Jobsearch</title>
<path fill="none" stroke="#8b683b" d="M686.061,-90.286C682.257,-88.7805 678.396,-87.3142 674.688,-86 627.5,-69.2785 615.538,-64.9505 566.688,-54 507.543,-40.742 438.604,-30.8888 392.354,-25.0713"/>
<ellipse fill="none" stroke="#8b683b" cx="690.017" cy="-91.891" rx="4.00001" ry="4.00001"/>
<polygon fill="#8b683b" stroke="#8b683b" points="392.187,-25.0507 382.817,-19.355 387.225,-24.4358 382.263,-23.8208 382.263,-23.8208 382.263,-23.8208 387.225,-24.4358 381.71,-28.2867 392.187,-25.0507 392.187,-25.0507"/>
</g>
<!-- Job&#45;&gt;Qualification -->
<g id="edge14" class="edge"><title>Job&#45;&gt;Qualification</title>
<path fill="none" stroke="#f1e54e" d="M735.266,-80.1187C738.015,-76.2333 740.608,-72.1187 742.688,-68 746.104,-61.2367 748.801,-53.5148 750.878,-46.2326"/>
<polygon fill="#f1e54e" stroke="#f1e54e" points="735.193,-80.2145 725.554,-85.4443 732.164,-84.1925 729.135,-88.1705 729.135,-88.1705 729.135,-88.1705 732.164,-84.1925 732.715,-90.8967 735.193,-80.2145 735.193,-80.2145"/>
<polygon fill="#f1e54e" stroke="#f1e54e" points="750.922,-46.0613 757.77,-37.4966 752.167,-41.2188 753.412,-36.3762 753.412,-36.3762 753.412,-36.3762 752.167,-41.2188 749.053,-35.2558 750.922,-46.0613 750.922,-46.0613"/>
</g>
<!-- User -->
<g id="node10" class="node"><title>User</title>
<ellipse fill="none" stroke="black" cx="539.688" cy="-177" rx="27" ry="18"/>
<text text-anchor="middle" x="539.688" y="-172.8" font-family="Times,serif" font-size="14.00">User</text>
</g>
<!-- User&#45;&gt;Contractor -->
<g id="edge10" class="edge"><title>User&#45;&gt;Contractor</title>
<path fill="none" stroke="black" d="M521.398,-163.633C503.536,-151.555 476.317,-133.149 457.148,-120.188"/>
</g>
<!-- User&#45;&gt;Employee -->
<g id="edge11" class="edge"><title>User&#45;&gt;Employee</title>
<path fill="none" stroke="black" d="M541.382,-158.813C542.483,-147.65 543.911,-133.16 545.009,-122.029"/>
</g>
<!-- Object -->
<g id="node11" class="node"><title>Object</title>
<ellipse fill="none" stroke="black" cx="258.688" cy="-268.5" rx="33.8596" ry="18"/>
<text text-anchor="middle" x="258.688" y="-264.3" font-family="Times,serif" font-size="14.00">Object</text>
</g>
<!-- Object&#45;&gt;Ability -->
<g id="edge1" class="edge"><title>Object&#45;&gt;Ability</title>
<path fill="none" stroke="black" d="M258.688,-250.243C258.688,-234.395 258.688,-211.035 258.688,-195.204"/>
</g>
<!-- ActiveRecord::Base -->
<g id="node12" class="node"><title>ActiveRecord::Base</title>
<ellipse fill="none" stroke="black" cx="584.688" cy="-268.5" rx="81.1422" ry="18"/>
<text text-anchor="middle" x="584.688" y="-264.3" font-family="Times,serif" font-size="14.00">ActiveRecord::Base</text>
</g>
<!-- ActiveRecord::Base&#45;&gt;Address -->
<g id="edge2" class="edge"><title>ActiveRecord::Base&#45;&gt;Address</title>
<path fill="none" stroke="black" d="M542.184,-253.027C467.031,-225.124 323.5,-160.06 377.688,-86 417.064,-32.1833 499.984,-20.5387 549.34,-18.6226"/>
</g>
<!-- ActiveRecord::Base&#45;&gt;Company -->
<g id="edge6" class="edge"><title>ActiveRecord::Base&#45;&gt;Company</title>
<path fill="none" stroke="black" d="M593.171,-250.243C601.013,-234.293 612.594,-210.735 620.379,-194.9"/>
</g>
<!-- ActiveRecord::Base&#45;&gt;Job -->
<g id="edge15" class="edge"><title>ActiveRecord::Base&#45;&gt;Job</title>
<path fill="none" stroke="black" d="M614.135,-251.635C635.463,-238.83 663.611,-219.023 681.688,-195 698.459,-172.711 707.818,-141.203 712.298,-121.988"/>
</g>
<!-- ActiveRecord::Base&#45;&gt;Jobsearch -->
<g id="edge16" class="edge"><title>ActiveRecord::Base&#45;&gt;Jobsearch</title>
<path fill="none" stroke="black" d="M512.549,-259.979C467.524,-251.493 411.826,-233.433 377.688,-195 337.103,-149.309 336.344,-70.7618 338.252,-36.1876"/>
</g>
<!-- ActiveRecord::Base&#45;&gt;Qualification -->
<g id="edge17" class="edge"><title>ActiveRecord::Base&#45;&gt;Qualification</title>
<path fill="none" stroke="black" d="M620.506,-252.267C646.41,-239.844 680.896,-220.239 704.688,-195 731.156,-166.921 738.439,-158.242 751.688,-122 759.997,-99.2703 757.129,-92.1506 758.688,-68 759.368,-57.4645 758.92,-45.639 758.277,-36.2449"/>
</g>
<!-- ActiveRecord::Base&#45;&gt;User -->
<g id="edge18" class="edge"><title>ActiveRecord::Base&#45;&gt;User</title>
<path fill="none" stroke="black" d="M576.011,-250.243C567.89,-234.09 555.844,-210.134 547.883,-194.299"/>
</g>
</g>
</svg>
