<?xml version="1.0" encoding="UTF-8" standalone="no"?>
<!DOCTYPE svg PUBLIC "-//W3C//DTD SVG 1.1//EN"
 "http://www.w3.org/Graphics/SVG/1.1/DTD/svg11.dtd">
<!-- Generated by graphviz version 2.38.0 (20140413.2041)
 -->
<!-- Title: models_diagram Pages: 1 -->
<svg width="1112pt" height="1194pt"
 viewBox="0.00 0.00 1111.57 1194.00" xmlns="http://www.w3.org/2000/svg" xmlns:xlink="http://www.w3.org/1999/xlink">
<g id="graph0" class="graph" transform="scale(1 1) rotate(0) translate(4 1190)">
<title>models_diagram</title>
<polygon fill="white" stroke="none" points="-4,4 -4,-1190 1107.57,-1190 1107.57,4 -4,4"/>
<!-- _diagram_info -->
<g id="node1" class="node"><title>_diagram_info</title>
<text text-anchor="start" x="8" y="-1171.6" font-family="Times,serif" font-size="13.00">Models diagram</text>
<text text-anchor="start" x="8" y="-1158.6" font-family="Times,serif" font-size="13.00">Date: Sep 18 2014 &#45; 10:41</text>
<text text-anchor="start" x="8" y="-1145.6" font-family="Times,serif" font-size="13.00">Migration version: 20140906122400</text>
<text text-anchor="start" x="8" y="-1132.6" font-family="Times,serif" font-size="13.00">Generated by RailRoady 1.1.1</text>
<text text-anchor="start" x="8" y="-1119.6" font-family="Times,serif" font-size="13.00">http://railroady.prestonlee.com</text>
</g>
<!-- Ability -->
<g id="node2" class="node"><title>Ability</title>
<polygon fill="none" stroke="black" points="230.853,-877.5 230.853,-921.5 286.522,-921.5 286.522,-877.5 230.853,-877.5"/>
<text text-anchor="middle" x="258.688" y="-906.3" font-family="Times,serif" font-size="14.00">Ability</text>
<polyline fill="none" stroke="black" points="230.853,-899.5 286.522,-899.5 "/>
<text text-anchor="middle" x="258.688" y="-884.3" font-family="Times,serif" font-size="14.00"> </text>
</g>
<!-- Address -->
<g id="node3" class="node"><title>Address</title>
<path fill="none" stroke="black" d="M649.065,-21.5C649.065,-21.5 806.31,-21.5 806.31,-21.5 812.31,-21.5 818.31,-27.5 818.31,-33.5 818.31,-33.5 818.31,-249.5 818.31,-249.5 818.31,-255.5 812.31,-261.5 806.31,-261.5 806.31,-261.5 649.065,-261.5 649.065,-261.5 643.065,-261.5 637.065,-255.5 637.065,-249.5 637.065,-249.5 637.065,-33.5 637.065,-33.5 637.065,-27.5 643.065,-21.5 649.065,-21.5"/>
<text text-anchor="middle" x="727.688" y="-246.3" font-family="Times,serif" font-size="14.00">Address</text>
<polyline fill="none" stroke="black" points="637.065,-239.5 818.31,-239.5 "/>
<text text-anchor="start" x="645.065" y="-224.3" font-family="Times,serif" font-size="14.00">id :integer</text>
<text text-anchor="start" x="645.065" y="-210.3" font-family="Times,serif" font-size="14.00">line1 :string</text>
<text text-anchor="start" x="645.065" y="-196.3" font-family="Times,serif" font-size="14.00">line2 :string</text>
<text text-anchor="start" x="645.065" y="-182.3" font-family="Times,serif" font-size="14.00">city :string</text>
<text text-anchor="start" x="645.065" y="-168.3" font-family="Times,serif" font-size="14.00">postcode :string</text>
<text text-anchor="start" x="645.065" y="-154.3" font-family="Times,serif" font-size="14.00">country :string</text>
<text text-anchor="start" x="645.065" y="-140.3" font-family="Times,serif" font-size="14.00">latitude :float</text>
<text text-anchor="start" x="645.065" y="-126.3" font-family="Times,serif" font-size="14.00">longitude :float</text>
<text text-anchor="start" x="645.065" y="-112.3" font-family="Times,serif" font-size="14.00">current_latitude :float</text>
<text text-anchor="start" x="645.065" y="-98.3" font-family="Times,serif" font-size="14.00">current_longitude :float</text>
<text text-anchor="start" x="645.065" y="-84.3" font-family="Times,serif" font-size="14.00">use_dynamic_location :string</text>
<text text-anchor="start" x="645.065" y="-70.3" font-family="Times,serif" font-size="14.00">addressable_id :integer</text>
<text text-anchor="start" x="645.065" y="-56.3" font-family="Times,serif" font-size="14.00">addressable_type :string</text>
<text text-anchor="start" x="645.065" y="-42.3" font-family="Times,serif" font-size="14.00">created_at :datetime</text>
<text text-anchor="start" x="645.065" y="-28.3" font-family="Times,serif" font-size="14.00">updated_at :datetime</text>
</g>
<!-- Company -->
<g id="node4" class="node"><title>Company</title>
<path fill="none" stroke="black" d="M795.182,-849.5C795.182,-849.5 904.193,-849.5 904.193,-849.5 910.193,-849.5 916.193,-855.5 916.193,-861.5 916.193,-861.5 916.193,-937.5 916.193,-937.5 916.193,-943.5 910.193,-949.5 904.193,-949.5 904.193,-949.5 795.182,-949.5 795.182,-949.5 789.182,-949.5 783.182,-943.5 783.182,-937.5 783.182,-937.5 783.182,-861.5 783.182,-861.5 783.182,-855.5 789.182,-849.5 795.182,-849.5"/>
<text text-anchor="middle" x="849.688" y="-934.3" font-family="Times,serif" font-size="14.00">Company</text>
<polyline fill="none" stroke="black" points="783.182,-927.5 916.193,-927.5 "/>
<text text-anchor="start" x="791.182" y="-912.3" font-family="Times,serif" font-size="14.00">id :integer</text>
<text text-anchor="start" x="791.182" y="-898.3" font-family="Times,serif" font-size="14.00">name :string</text>
<text text-anchor="start" x="791.182" y="-884.3" font-family="Times,serif" font-size="14.00">phone :string</text>
<text text-anchor="start" x="791.182" y="-870.3" font-family="Times,serif" font-size="14.00">created_at :datetime</text>
<text text-anchor="start" x="791.182" y="-856.3" font-family="Times,serif" font-size="14.00">updated_at :datetime</text>
</g>
<!-- Company&#45;&gt;Address -->
<g id="edge3" class="edge"><title>Company&#45;&gt;Address</title>
<path fill="none" stroke="#ccee90" d="M849.939,-840.821C849.993,-716.646 847.362,-427.598 822.688,-333 817.097,-311.567 808.917,-289.729 799.667,-268.849"/>
<ellipse fill="none" stroke="#ccee90" cx="849.935" cy="-845.115" rx="4" ry="4"/>
<ellipse fill="#ccee90" stroke="#ccee90" cx="797.999" cy="-265.152" rx="4.00002" ry="4.00002"/>
<text text-anchor="middle" x="868.681" y="-505.3" font-family="Times,serif" font-size="14.00">address</text>
</g>
<!-- Employee -->
<g id="node6" class="node"><title>Employee</title>
<path fill="none" stroke="black" d="M621.41,-333.5C621.41,-333.5 801.966,-333.5 801.966,-333.5 807.966,-333.5 813.966,-339.5 813.966,-345.5 813.966,-345.5 813.966,-673.5 813.966,-673.5 813.966,-679.5 807.966,-685.5 801.966,-685.5 801.966,-685.5 621.41,-685.5 621.41,-685.5 615.41,-685.5 609.41,-679.5 609.41,-673.5 609.41,-673.5 609.41,-345.5 609.41,-345.5 609.41,-339.5 615.41,-333.5 621.41,-333.5"/>
<text text-anchor="middle" x="711.688" y="-670.3" font-family="Times,serif" font-size="14.00">Employee</text>
<polyline fill="none" stroke="black" points="609.41,-663.5 813.966,-663.5 "/>
<text text-anchor="start" x="617.41" y="-648.3" font-family="Times,serif" font-size="14.00">id :integer</text>
<text text-anchor="start" x="617.41" y="-634.3" font-family="Times,serif" font-size="14.00">email :string</text>
<text text-anchor="start" x="617.41" y="-620.3" font-family="Times,serif" font-size="14.00">encrypted_password :string</text>
<text text-anchor="start" x="617.41" y="-606.3" font-family="Times,serif" font-size="14.00">reset_password_token :string</text>
<text text-anchor="start" x="617.41" y="-592.3" font-family="Times,serif" font-size="14.00">reset_password_sent_at :datetime</text>
<text text-anchor="start" x="617.41" y="-578.3" font-family="Times,serif" font-size="14.00">remember_created_at :datetime</text>
<text text-anchor="start" x="617.41" y="-564.3" font-family="Times,serif" font-size="14.00">sign_in_count :integer</text>
<text text-anchor="start" x="617.41" y="-550.3" font-family="Times,serif" font-size="14.00">current_sign_in_at :datetime</text>
<text text-anchor="start" x="617.41" y="-536.3" font-family="Times,serif" font-size="14.00">last_sign_in_at :datetime</text>
<text text-anchor="start" x="617.41" y="-522.3" font-family="Times,serif" font-size="14.00">current_sign_in_ip :string</text>
<text text-anchor="start" x="617.41" y="-508.3" font-family="Times,serif" font-size="14.00">last_sign_in_ip :string</text>
<text text-anchor="start" x="617.41" y="-494.3" font-family="Times,serif" font-size="14.00">name :string</text>
<text text-anchor="start" x="617.41" y="-480.3" font-family="Times,serif" font-size="14.00">phone :string</text>
<text text-anchor="start" x="617.41" y="-466.3" font-family="Times,serif" font-size="14.00">last_active :datetime</text>
<text text-anchor="start" x="617.41" y="-452.3" font-family="Times,serif" font-size="14.00">role :string</text>
<text text-anchor="start" x="617.41" y="-438.3" font-family="Times,serif" font-size="14.00">type :string</text>
<text text-anchor="start" x="617.41" y="-424.3" font-family="Times,serif" font-size="14.00">company_id :integer</text>
<text text-anchor="start" x="617.41" y="-410.3" font-family="Times,serif" font-size="14.00">dob :date</text>
<text text-anchor="start" x="617.41" y="-396.3" font-family="Times,serif" font-size="14.00">distance_travel :integer</text>
<text text-anchor="start" x="617.41" y="-382.3" font-family="Times,serif" font-size="14.00">abroad :boolean</text>
<text text-anchor="start" x="617.41" y="-368.3" font-family="Times,serif" font-size="14.00">available_now :boolean</text>
<text text-anchor="start" x="617.41" y="-354.3" font-family="Times,serif" font-size="14.00">created_at :datetime</text>
<text text-anchor="start" x="617.41" y="-340.3" font-family="Times,serif" font-size="14.00">updated_at :datetime</text>
</g>
<!-- Company&#45;&gt;Employee -->
<g id="edge5" class="edge"><title>Company&#45;&gt;Employee</title>
<path fill="none" stroke="#495376" d="M829.444,-841.582C815.57,-802.574 796.319,-748.447 777.398,-695.25"/>
<ellipse fill="none" stroke="#495376" cx="830.869" cy="-845.591" rx="4.00001" ry="4.00001"/>
<polygon fill="#495376" stroke="#495376" points="777.346,-695.103 778.234,-684.174 775.67,-690.393 773.995,-685.682 773.995,-685.682 773.995,-685.682 775.67,-690.393 769.755,-687.19 777.346,-695.103 777.346,-695.103"/>
</g>
<!-- Job -->
<g id="node7" class="node"><title>Job</title>
<path fill="none" stroke="black" d="M921.182,-417.5C921.182,-417.5 1030.19,-417.5 1030.19,-417.5 1036.19,-417.5 1042.19,-423.5 1042.19,-429.5 1042.19,-429.5 1042.19,-589.5 1042.19,-589.5 1042.19,-595.5 1036.19,-601.5 1030.19,-601.5 1030.19,-601.5 921.182,-601.5 921.182,-601.5 915.182,-601.5 909.182,-595.5 909.182,-589.5 909.182,-589.5 909.182,-429.5 909.182,-429.5 909.182,-423.5 915.182,-417.5 921.182,-417.5"/>
<text text-anchor="middle" x="975.688" y="-586.3" font-family="Times,serif" font-size="14.00">Job</text>
<polyline fill="none" stroke="black" points="909.182,-579.5 1042.19,-579.5 "/>
<text text-anchor="start" x="917.182" y="-564.3" font-family="Times,serif" font-size="14.00">id :integer</text>
<text text-anchor="start" x="917.182" y="-550.3" font-family="Times,serif" font-size="14.00">description :string</text>
<text text-anchor="start" x="917.182" y="-536.3" font-family="Times,serif" font-size="14.00">abroad :boolean</text>
<text text-anchor="start" x="917.182" y="-522.3" font-family="Times,serif" font-size="14.00">filled :boolean</text>
<text text-anchor="start" x="917.182" y="-508.3" font-family="Times,serif" font-size="14.00">cancelled :boolean</text>
<text text-anchor="start" x="917.182" y="-494.3" font-family="Times,serif" font-size="14.00">start_date :date</text>
<text text-anchor="start" x="917.182" y="-480.3" font-family="Times,serif" font-size="14.00">end_date :date</text>
<text text-anchor="start" x="917.182" y="-466.3" font-family="Times,serif" font-size="14.00">company_id :integer</text>
<text text-anchor="start" x="917.182" y="-452.3" font-family="Times,serif" font-size="14.00">salary_range :string</text>
<text text-anchor="start" x="917.182" y="-438.3" font-family="Times,serif" font-size="14.00">created_at :datetime</text>
<text text-anchor="start" x="917.182" y="-424.3" font-family="Times,serif" font-size="14.00">updated_at :datetime</text>
</g>
<!-- Company&#45;&gt;Job -->
<g id="edge4" class="edge"><title>Company&#45;&gt;Job</title>
<path fill="none" stroke="#4ad266" d="M868.201,-841.492C887.793,-781.16 919.107,-684.732 942.894,-611.483"/>
<ellipse fill="none" stroke="#4ad266" cx="866.881" cy="-845.555" rx="4.00001" ry="4.00001"/>
<polygon fill="#4ad266" stroke="#4ad266" points="942.962,-611.273 950.331,-603.152 944.507,-606.517 946.051,-601.762 946.051,-601.762 946.051,-601.762 944.507,-606.517 941.771,-600.372 942.962,-611.273 942.962,-611.273"/>
</g>
<!-- Contractor -->
<g id="node5" class="node"><title>Contractor</title>
<path fill="none" stroke="black" d="M398.41,-333.5C398.41,-333.5 578.966,-333.5 578.966,-333.5 584.966,-333.5 590.966,-339.5 590.966,-345.5 590.966,-345.5 590.966,-673.5 590.966,-673.5 590.966,-679.5 584.966,-685.5 578.966,-685.5 578.966,-685.5 398.41,-685.5 398.41,-685.5 392.41,-685.5 386.41,-679.5 386.41,-673.5 386.41,-673.5 386.41,-345.5 386.41,-345.5 386.41,-339.5 392.41,-333.5 398.41,-333.5"/>
<text text-anchor="middle" x="488.688" y="-670.3" font-family="Times,serif" font-size="14.00">Contractor</text>
<polyline fill="none" stroke="black" points="386.41,-663.5 590.966,-663.5 "/>
<text text-anchor="start" x="394.41" y="-648.3" font-family="Times,serif" font-size="14.00">id :integer</text>
<text text-anchor="start" x="394.41" y="-634.3" font-family="Times,serif" font-size="14.00">email :string</text>
<text text-anchor="start" x="394.41" y="-620.3" font-family="Times,serif" font-size="14.00">encrypted_password :string</text>
<text text-anchor="start" x="394.41" y="-606.3" font-family="Times,serif" font-size="14.00">reset_password_token :string</text>
<text text-anchor="start" x="394.41" y="-592.3" font-family="Times,serif" font-size="14.00">reset_password_sent_at :datetime</text>
<text text-anchor="start" x="394.41" y="-578.3" font-family="Times,serif" font-size="14.00">remember_created_at :datetime</text>
<text text-anchor="start" x="394.41" y="-564.3" font-family="Times,serif" font-size="14.00">sign_in_count :integer</text>
<text text-anchor="start" x="394.41" y="-550.3" font-family="Times,serif" font-size="14.00">current_sign_in_at :datetime</text>
<text text-anchor="start" x="394.41" y="-536.3" font-family="Times,serif" font-size="14.00">last_sign_in_at :datetime</text>
<text text-anchor="start" x="394.41" y="-522.3" font-family="Times,serif" font-size="14.00">current_sign_in_ip :string</text>
<text text-anchor="start" x="394.41" y="-508.3" font-family="Times,serif" font-size="14.00">last_sign_in_ip :string</text>
<text text-anchor="start" x="394.41" y="-494.3" font-family="Times,serif" font-size="14.00">name :string</text>
<text text-anchor="start" x="394.41" y="-480.3" font-family="Times,serif" font-size="14.00">phone :string</text>
<text text-anchor="start" x="394.41" y="-466.3" font-family="Times,serif" font-size="14.00">last_active :datetime</text>
<text text-anchor="start" x="394.41" y="-452.3" font-family="Times,serif" font-size="14.00">role :string</text>
<text text-anchor="start" x="394.41" y="-438.3" font-family="Times,serif" font-size="14.00">type :string</text>
<text text-anchor="start" x="394.41" y="-424.3" font-family="Times,serif" font-size="14.00">company_id :integer</text>
<text text-anchor="start" x="394.41" y="-410.3" font-family="Times,serif" font-size="14.00">dob :date</text>
<text text-anchor="start" x="394.41" y="-396.3" font-family="Times,serif" font-size="14.00">distance_travel :integer</text>
<text text-anchor="start" x="394.41" y="-382.3" font-family="Times,serif" font-size="14.00">abroad :boolean</text>
<text text-anchor="start" x="394.41" y="-368.3" font-family="Times,serif" font-size="14.00">available_now :boolean</text>
<text text-anchor="start" x="394.41" y="-354.3" font-family="Times,serif" font-size="14.00">created_at :datetime</text>
<text text-anchor="start" x="394.41" y="-340.3" font-family="Times,serif" font-size="14.00">updated_at :datetime</text>
</g>
<!-- Contractor&#45;&gt;Address -->
<g id="edge7" class="edge"><title>Contractor&#45;&gt;Address</title>
<path fill="none" stroke="#ef4a48" d="M595.619,-340.783C597.319,-338.169 599.009,-335.573 600.688,-333 614.307,-312.122 628.875,-290.041 643.11,-268.599"/>
<ellipse fill="none" stroke="#ef4a48" cx="593.278" cy="-344.388" rx="4.00002" ry="4.00002"/>
<ellipse fill="#ef4a48" stroke="#ef4a48" cx="645.505" cy="-264.994" rx="4.00002" ry="4.00002"/>
<text text-anchor="middle" x="641.681" y="-303.8" font-family="Times,serif" font-size="14.00">address</text>
</g>
<!-- Jobsearch -->
<g id="node8" class="node"><title>Jobsearch</title>
<path fill="none" stroke="black" d="M269.231,-0.5C269.231,-0.5 410.145,-0.5 410.145,-0.5 416.145,-0.5 422.145,-6.5 422.145,-12.5 422.145,-12.5 422.145,-270.5 422.145,-270.5 422.145,-276.5 416.145,-282.5 410.145,-282.5 410.145,-282.5 269.231,-282.5 269.231,-282.5 263.231,-282.5 257.231,-276.5 257.231,-270.5 257.231,-270.5 257.231,-12.5 257.231,-12.5 257.231,-6.5 263.231,-0.5 269.231,-0.5"/>
<text text-anchor="middle" x="339.688" y="-267.3" font-family="Times,serif" font-size="14.00">Jobsearch</text>
<polyline fill="none" stroke="black" points="257.231,-260.5 422.145,-260.5 "/>
<text text-anchor="start" x="265.231" y="-245.3" font-family="Times,serif" font-size="14.00">id :integer</text>
<text text-anchor="start" x="265.231" y="-231.3" font-family="Times,serif" font-size="14.00">interested :boolean</text>
<text text-anchor="start" x="265.231" y="-217.3" font-family="Times,serif" font-size="14.00">dateinterested :datetime</text>
<text text-anchor="start" x="265.231" y="-203.3" font-family="Times,serif" font-size="14.00">contacted :boolean</text>
<text text-anchor="start" x="265.231" y="-189.3" font-family="Times,serif" font-size="14.00">datecontacted :datetime</text>
<text text-anchor="start" x="265.231" y="-175.3" font-family="Times,serif" font-size="14.00">offered :boolean</text>
<text text-anchor="start" x="265.231" y="-161.3" font-family="Times,serif" font-size="14.00">dateoffered :datetime</text>
<text text-anchor="start" x="265.231" y="-147.3" font-family="Times,serif" font-size="14.00">rejected :boolean</text>
<text text-anchor="start" x="265.231" y="-133.3" font-family="Times,serif" font-size="14.00">daterejected :datetime</text>
<text text-anchor="start" x="265.231" y="-119.3" font-family="Times,serif" font-size="14.00">accepted :boolean</text>
<text text-anchor="start" x="265.231" y="-105.3" font-family="Times,serif" font-size="14.00">dateaccepted :boolean</text>
<text text-anchor="start" x="265.231" y="-91.3" font-family="Times,serif" font-size="14.00">declined :boolean</text>
<text text-anchor="start" x="265.231" y="-77.3" font-family="Times,serif" font-size="14.00">datedeclined :datetime</text>
<text text-anchor="start" x="265.231" y="-63.3" font-family="Times,serif" font-size="14.00">firstsearchposition :integer</text>
<text text-anchor="start" x="265.231" y="-49.3" font-family="Times,serif" font-size="14.00">job_id :integer</text>
<text text-anchor="start" x="265.231" y="-35.3" font-family="Times,serif" font-size="14.00">contractor_id :integer</text>
<text text-anchor="start" x="265.231" y="-21.3" font-family="Times,serif" font-size="14.00">created_at :datetime</text>
<text text-anchor="start" x="265.231" y="-7.3" font-family="Times,serif" font-size="14.00">updated_at :datetime</text>
</g>
<!-- Contractor&#45;&gt;Jobsearch -->
<g id="edge8" class="edge"><title>Contractor&#45;&gt;Jobsearch</title>
<path fill="none" stroke="#12c972" d="M414.271,-325.704C409.667,-314.395 405.062,-303.085 400.528,-291.946"/>
<ellipse fill="none" stroke="#12c972" cx="415.843" cy="-329.567" rx="4.00001" ry="4.00001"/>
<polygon fill="#12c972" stroke="#12c972" points="400.508,-291.896 400.905,-280.938 398.622,-287.265 396.737,-282.634 396.737,-282.634 396.737,-282.634 398.622,-287.265 392.569,-284.331 400.508,-291.896 400.508,-291.896"/>
</g>
<!-- Qualification -->
<g id="node9" class="node"><title>Qualification</title>
<path fill="none" stroke="black" d="M935.182,-84.5C935.182,-84.5 1044.19,-84.5 1044.19,-84.5 1050.19,-84.5 1056.19,-90.5 1056.19,-96.5 1056.19,-96.5 1056.19,-186.5 1056.19,-186.5 1056.19,-192.5 1050.19,-198.5 1044.19,-198.5 1044.19,-198.5 935.182,-198.5 935.182,-198.5 929.182,-198.5 923.182,-192.5 923.182,-186.5 923.182,-186.5 923.182,-96.5 923.182,-96.5 923.182,-90.5 929.182,-84.5 935.182,-84.5"/>
<text text-anchor="middle" x="989.688" y="-183.3" font-family="Times,serif" font-size="14.00">Qualification</text>
<polyline fill="none" stroke="black" points="923.182,-176.5 1056.19,-176.5 "/>
<text text-anchor="start" x="931.182" y="-161.3" font-family="Times,serif" font-size="14.00">id :integer</text>
<text text-anchor="start" x="931.182" y="-147.3" font-family="Times,serif" font-size="14.00">name :string</text>
<text text-anchor="start" x="931.182" y="-133.3" font-family="Times,serif" font-size="14.00">subdivision :string</text>
<text text-anchor="start" x="931.182" y="-119.3" font-family="Times,serif" font-size="14.00">industry :string</text>
<text text-anchor="start" x="931.182" y="-105.3" font-family="Times,serif" font-size="14.00">created_at :datetime</text>
<text text-anchor="start" x="931.182" y="-91.3" font-family="Times,serif" font-size="14.00">updated_at :datetime</text>
</g>
<!-- Contractor&#45;&gt;Qualification -->
<g id="edge9" class="edge"><title>Contractor&#45;&gt;Qualification</title>
<path fill="none" stroke="#cf54d7" d="M599.165,-334.077C599.671,-333.715 600.178,-333.356 600.688,-333 621.86,-318.209 804.61,-294.596 827.688,-283 865.859,-263.82 902.358,-233.607 931.016,-206.104"/>
<polygon fill="#cf54d7" stroke="#cf54d7" points="599.083,-334.139 588.402,-336.622 595.106,-337.17 591.129,-340.201 591.129,-340.201 591.129,-340.201 595.106,-337.17 593.857,-343.78 599.083,-334.139 599.083,-334.139"/>
<polygon fill="#cf54d7" stroke="#cf54d7" points="931.344,-205.784 941.647,-202.029 934.925,-202.295 938.506,-198.806 938.506,-198.806 938.506,-198.806 934.925,-202.295 935.366,-195.583 931.344,-205.784 931.344,-205.784"/>
</g>
<!-- Job&#45;&gt;Address -->
<g id="edge12" class="edge"><title>Job&#45;&gt;Address</title>
<path fill="none" stroke="#5259aa" d="M943.555,-409.878C929.539,-373.996 911.126,-334.143 888.688,-301 870.545,-274.201 847.373,-248.213 824.299,-225.296"/>
<ellipse fill="none" stroke="#5259aa" cx="945.042" cy="-413.738" rx="4.00001" ry="4.00001"/>
<ellipse fill="#5259aa" stroke="#5259aa" cx="821.291" cy="-222.34" rx="4.00002" ry="4.00002"/>
<text text-anchor="middle" x="915.681" y="-303.8" font-family="Times,serif" font-size="14.00">address</text>
</g>
<!-- Job&#45;&gt;Jobsearch -->
<g id="edge13" class="edge"><title>Job&#45;&gt;Jobsearch</title>
<path fill="none" stroke="#941c08" d="M949.768,-409.57C937.716,-380.98 920.384,-352.316 895.688,-333 800.248,-258.35 742.735,-321.019 627.688,-283 559.387,-260.429 486.609,-224.816 431.302,-195.093"/>
<ellipse fill="none" stroke="#941c08" cx="951.371" cy="-413.519" rx="4.00001" ry="4.00001"/>
<polygon fill="#941c08" stroke="#941c08" points="431.027,-194.944 424.372,-186.229 426.629,-192.566 422.231,-190.187 422.231,-190.187 422.231,-190.187 426.629,-192.566 420.09,-194.145 431.027,-194.944 431.027,-194.944"/>
</g>
<!-- Job&#45;&gt;Qualification -->
<g id="edge14" class="edge"><title>Job&#45;&gt;Qualification</title>
<path fill="none" stroke="#b557cc" d="M979.575,-406.879C981.997,-343.549 985.044,-263.891 987.157,-208.65"/>
<polygon fill="#b557cc" stroke="#b557cc" points="979.567,-407.094 974.688,-416.915 979.376,-412.091 979.184,-417.087 979.184,-417.087 979.184,-417.087 979.376,-412.091 983.681,-417.259 979.567,-407.094 979.567,-407.094"/>
<polygon fill="#b557cc" stroke="#b557cc" points="987.158,-208.622 992.037,-198.801 987.35,-203.626 987.541,-198.629 987.541,-198.629 987.541,-198.629 987.35,-203.626 983.044,-198.457 987.158,-208.622 987.158,-208.622"/>
</g>
<!-- User -->
<g id="node10" class="node"><title>User</title>
<path fill="none" stroke="black" d="M572.41,-723.5C572.41,-723.5 752.966,-723.5 752.966,-723.5 758.966,-723.5 764.966,-729.5 764.966,-735.5 764.966,-735.5 764.966,-1063.5 764.966,-1063.5 764.966,-1069.5 758.966,-1075.5 752.966,-1075.5 752.966,-1075.5 572.41,-1075.5 572.41,-1075.5 566.41,-1075.5 560.41,-1069.5 560.41,-1063.5 560.41,-1063.5 560.41,-735.5 560.41,-735.5 560.41,-729.5 566.41,-723.5 572.41,-723.5"/>
<text text-anchor="middle" x="662.688" y="-1060.3" font-family="Times,serif" font-size="14.00">User</text>
<polyline fill="none" stroke="black" points="560.41,-1053.5 764.966,-1053.5 "/>
<text text-anchor="start" x="568.41" y="-1038.3" font-family="Times,serif" font-size="14.00">id :integer</text>
<text text-anchor="start" x="568.41" y="-1024.3" font-family="Times,serif" font-size="14.00">email :string</text>
<text text-anchor="start" x="568.41" y="-1010.3" font-family="Times,serif" font-size="14.00">encrypted_password :string</text>
<text text-anchor="start" x="568.41" y="-996.3" font-family="Times,serif" font-size="14.00">reset_password_token :string</text>
<text text-anchor="start" x="568.41" y="-982.3" font-family="Times,serif" font-size="14.00">reset_password_sent_at :datetime</text>
<text text-anchor="start" x="568.41" y="-968.3" font-family="Times,serif" font-size="14.00">remember_created_at :datetime</text>
<text text-anchor="start" x="568.41" y="-954.3" font-family="Times,serif" font-size="14.00">sign_in_count :integer</text>
<text text-anchor="start" x="568.41" y="-940.3" font-family="Times,serif" font-size="14.00">current_sign_in_at :datetime</text>
<text text-anchor="start" x="568.41" y="-926.3" font-family="Times,serif" font-size="14.00">last_sign_in_at :datetime</text>
<text text-anchor="start" x="568.41" y="-912.3" font-family="Times,serif" font-size="14.00">current_sign_in_ip :string</text>
<text text-anchor="start" x="568.41" y="-898.3" font-family="Times,serif" font-size="14.00">last_sign_in_ip :string</text>
<text text-anchor="start" x="568.41" y="-884.3" font-family="Times,serif" font-size="14.00">name :string</text>
<text text-anchor="start" x="568.41" y="-870.3" font-family="Times,serif" font-size="14.00">phone :string</text>
<text text-anchor="start" x="568.41" y="-856.3" font-family="Times,serif" font-size="14.00">last_active :datetime</text>
<text text-anchor="start" x="568.41" y="-842.3" font-family="Times,serif" font-size="14.00">role :string</text>
<text text-anchor="start" x="568.41" y="-828.3" font-family="Times,serif" font-size="14.00">type :string</text>
<text text-anchor="start" x="568.41" y="-814.3" font-family="Times,serif" font-size="14.00">company_id :integer</text>
<text text-anchor="start" x="568.41" y="-800.3" font-family="Times,serif" font-size="14.00">dob :date</text>
<text text-anchor="start" x="568.41" y="-786.3" font-family="Times,serif" font-size="14.00">distance_travel :integer</text>
<text text-anchor="start" x="568.41" y="-772.3" font-family="Times,serif" font-size="14.00">abroad :boolean</text>
<text text-anchor="start" x="568.41" y="-758.3" font-family="Times,serif" font-size="14.00">available_now :boolean</text>
<text text-anchor="start" x="568.41" y="-744.3" font-family="Times,serif" font-size="14.00">created_at :datetime</text>
<text text-anchor="start" x="568.41" y="-730.3" font-family="Times,serif" font-size="14.00">updated_at :datetime</text>
</g>
<!-- User&#45;&gt;Contractor -->
<g id="edge10" class="edge"><title>User&#45;&gt;Contractor</title>
<path fill="none" stroke="black" d="M584.087,-723.23C578.503,-710.779 572.873,-698.224 567.289,-685.772"/>
</g>
<!-- User&#45;&gt;Employee -->
<g id="edge11" class="edge"><title>User&#45;&gt;Employee</title>
<path fill="none" stroke="black" d="M684.822,-723.23C686.395,-710.779 687.98,-698.224 689.553,-685.772"/>
</g>
<!-- Object -->
<g id="node11" class="node"><title>Object</title>
<ellipse fill="none" stroke="black" cx="258.688" cy="-1149.5" rx="33.8596" ry="18"/>
<text text-anchor="middle" x="258.688" y="-1145.3" font-family="Times,serif" font-size="14.00">Object</text>
</g>
<!-- Object&#45;&gt;Ability -->
<g id="edge1" class="edge"><title>Object&#45;&gt;Ability</title>
<path fill="none" stroke="black" d="M258.688,-1131.45C258.688,-1087.46 258.688,-970.175 258.688,-921.809"/>
</g>
<!-- ActiveRecord::Base -->
<g id="node12" class="node"><title>ActiveRecord::Base</title>
<ellipse fill="none" stroke="black" cx="755.688" cy="-1149.5" rx="81.1422" ry="18"/>
<text text-anchor="middle" x="755.688" y="-1145.3" font-family="Times,serif" font-size="14.00">ActiveRecord::Base</text>
</g>
<!-- ActiveRecord::Base&#45;&gt;Address -->
<g id="edge2" class="edge"><title>ActiveRecord::Base&#45;&gt;Address</title>
<path fill="none" stroke="black" d="M689.413,-1138.83C645.668,-1129.4 589.633,-1111.09 551.688,-1076 412.335,-947.137 417.221,-871.639 377.688,-686 345.009,-532.552 297.541,-467.872 377.688,-333 406.756,-284.083 542.984,-219.374 636.653,-179.365"/>
</g>
<!-- ActiveRecord::Base&#45;&gt;Company -->
<g id="edge6" class="edge"><title>ActiveRecord::Base&#45;&gt;Company</title>
<path fill="none" stroke="black" d="M762.149,-1131.45C776.169,-1094.47 809.828,-1005.66 831.087,-949.576"/>
</g>
<!-- ActiveRecord::Base&#45;&gt;Job -->
<g id="edge15" class="edge"><title>ActiveRecord::Base&#45;&gt;Job</title>
<path fill="none" stroke="black" d="M819.192,-1138.07C856.386,-1128.48 900.806,-1110.27 925.688,-1076 1027.3,-936.023 1013.09,-722.197 994.109,-601.561"/>
</g>
<!-- ActiveRecord::Base&#45;&gt;Jobsearch -->
<g id="edge16" class="edge"><title>ActiveRecord::Base&#45;&gt;Jobsearch</title>
<path fill="none" stroke="black" d="M678.142,-1143.9C580.665,-1136.42 421.273,-1117.99 381.688,-1076 277.219,-965.187 303.394,-514.809 324.776,-282.543"/>
</g>
<!-- ActiveRecord::Base&#45;&gt;Qualification -->
<g id="edge17" class="edge"><title>ActiveRecord::Base&#45;&gt;Qualification</title>
<path fill="none" stroke="black" d="M832.343,-1143.42C881.597,-1135.98 943.007,-1118.18 979.688,-1076 1202.37,-819.942 1067.49,-358.298 1010.97,-198.635"/>
</g>
<!-- ActiveRecord::Base&#45;&gt;User -->
<g id="edge18" class="edge"><title>ActiveRecord::Base&#45;&gt;User</title>
<path fill="none" stroke="black" d="M749.295,-1131.45C744.33,-1118.21 736.874,-1098.33 728.383,-1075.69"/>
</g>
</g>
</svg>
